<svg width="640" height="180" viewBox="0 0 640 180" fill="none" xmlns="http://www.w3.org/2000/svg" role="img" aria-labelledby="title desc">
  <title id="title">prompt-ops-maker logo</title>
  <desc id="desc">A prompt cursor, boundary shield, and verification check for prompt operations.</desc>
  <defs>
    <linearGradient id="bg" x1="0" y1="0" x2="640" y2="180" gradientUnits="userSpaceOnUse">
      <stop stop-color="#111827"/>
      <stop offset="1" stop-color="#0F172A"/>
    </linearGradient>
    <linearGradient id="accent" x1="71" y1="44" x2="173" y2="148" gradientUnits="userSpaceOnUse">
      <stop stop-color="#38BDF8"/>
      <stop offset="1" stop-color="#A78BFA"/>
    </linearGradient>
    <filter id="softShadow" x="-20%" y="-20%" width="140%" height="140%" color-interpolation-filters="sRGB">
      <feDropShadow dx="0" dy="14" stdDeviation="18" flood-color="#020617" flood-opacity="0.35"/>
    </filter>
  </defs>
  <rect width="640" height="180" rx="34" fill="url(#bg)"/>
  <g opacity="0.36">
    <path d="M440 24H606" stroke="#334155" stroke-width="2"/>
    <path d="M402 58H584" stroke="#334155" stroke-width="2"/>
    <path d="M452 126H612" stroke="#334155" stroke-width="2"/>
    <circle cx="445" cy="24" r="4" fill="#38BDF8"/>
    <circle cx="407" cy="58" r="4" fill="#A78BFA"/>
    <circle cx="457" cy="126" r="4" fill="#22C55E"/>
  </g>
  <g filter="url(#softShadow)">
    <rect x="54" y="38" width="142" height="104" rx="26" fill="#0B1220" stroke="#1E293B" stroke-width="2"/>
    <path d="M82 76L112 93L82 110" stroke="url(#accent)" stroke-width="9" stroke-linecap="round" stroke-linejoin="round"/>
    <path d="M126 113H166" stroke="#E5E7EB" stroke-width="9" stroke-linecap="round"/>
    <path d="M151 58L179 69V91C179 113 167 128 151 134C135 128 123 113 123 91V69L151 58Z" fill="#111827" stroke="#38BDF8" stroke-width="5"/>
    <path d="M139 94L149 104L166 82" stroke="#22C55E" stroke-width="6" stroke-linecap="round" stroke-linejoin="round"/>
  </g>
  <text x="228" y="80" fill="#F8FAFC" font-family="Inter, ui-sans-serif, system-ui, -apple-system, BlinkMacSystemFont, Segoe UI, sans-serif" font-size="38" font-weight="800" letter-spacing="-1.2">prompt-ops-maker</text>
  <text x="230" y="114" fill="#CBD5E1" font-family="Inter, ui-sans-serif, system-ui, -apple-system, BlinkMacSystemFont, Segoe UI, sans-serif" font-size="18" font-weight="500">scope · deny-list · verification gates · no secret echo</text>
  <g transform="translate(230 132)">
    <rect width="118" height="26" rx="13" fill="#0F766E" fill-opacity="0.24" stroke="#14B8A6"/>
    <text x="15" y="18" fill="#99F6E4" font-family="Inter, ui-sans-serif, system-ui" font-size="13" font-weight="700">local analysis</text>
    <rect x="130" width="96" height="26" rx="13" fill="#1D4ED8" fill-opacity="0.24" stroke="#60A5FA"/>
    <text x="145" y="18" fill="#BFDBFE" font-family="Inter, ui-sans-serif, system-ui" font-size="13" font-weight="700">JSON/YAML</text>
    <rect x="238" width="106" height="26" rx="13" fill="#7C2D12" fill-opacity="0.24" stroke="#FB923C"/>
    <text x="253" y="18" fill="#FED7AA" font-family="Inter, ui-sans-serif, system-ui" font-size="13" font-weight="700">AI calls: 0</text>
  </g>
</svg>
